<svg width="1116" height="832" viewBox="0 0 1116 832" fill="none" xmlns="http://www.w3.org/2000/svg">
<path d="M1115.91 730.7H0V731.258H1115.91V730.7Z" fill="#E6E6E6"/>
<path d="M278.577 764.468H204.659V765.026H278.577V764.468Z" fill="#E6E6E6"/>
<path d="M181.269 764.468H138.44V765.026H181.269V764.468Z" fill="#E6E6E6"/>
<path d="M469.911 772.681H427.083V773.239H469.911V772.681Z" fill="#E6E6E6"/>
<path d="M693.228 785.135H596.835V785.693H693.228V785.135Z" fill="#E6E6E6"/>
<path d="M576.972 785.135H562.845V785.693H576.972V785.135Z" fill="#E6E6E6"/>
<path d="M1011.8 772.681H802.722V773.239H1011.8V772.681Z" fill="#E6E6E6"/>
<path d="M528.943 631.161H97.9995C94.6235 631.155 91.3878 629.81 89.0027 627.42C86.6176 625.031 85.2781 621.793 85.2781 618.417V12.6321C85.3075 9.27553 86.66 6.06606 89.0419 3.70086C91.4238 1.33566 94.6428 0.00575005 97.9995 0H528.943C532.323 0 535.564 1.34264 537.954 3.73255C540.344 6.12247 541.687 9.36389 541.687 12.7437V618.417C541.687 621.797 540.344 625.038 537.954 627.428C535.564 629.818 532.323 631.161 528.943 631.161ZM97.9995 0.446367C94.7715 0.452279 91.6777 1.73874 89.3973 4.02338C87.1168 6.30801 85.836 9.40414 85.836 12.6321V618.417C85.836 621.645 87.1168 624.741 89.3973 627.026C91.6777 629.311 94.7715 630.597 97.9995 630.603H528.943C532.173 630.597 535.269 629.311 537.553 627.027C539.837 624.743 541.123 621.647 541.129 618.417V12.6321C541.123 9.40209 539.837 6.30601 537.553 4.02201C535.269 1.73801 532.173 0.452267 528.943 0.446367H97.9995Z" fill="#E6E6E6"/>
<path d="M1011.71 631.161H580.744C577.366 631.155 574.128 629.81 571.739 627.422C569.351 625.033 568.006 621.795 568 618.417V12.6321C568.035 9.2735 569.393 6.06405 571.778 3.69946C574.164 1.33488 577.385 0.00568734 580.744 0H1011.71C1015.06 0.0116155 1018.28 1.34412 1020.65 3.70869C1023.03 6.07326 1024.38 9.27939 1024.41 12.6321V618.417C1024.41 621.789 1023.07 625.024 1020.69 627.413C1018.31 629.801 1015.08 631.149 1011.71 631.161ZM580.744 0.446367C577.514 0.452267 574.418 1.73801 572.134 4.02201C569.85 6.30601 568.564 9.40209 568.558 12.6321V618.417C568.564 621.647 569.85 624.743 572.134 627.027C574.418 629.311 577.514 630.597 580.744 630.603H1011.71C1014.94 630.597 1018.04 629.311 1020.32 627.027C1022.6 624.743 1023.89 621.647 1023.9 618.417V12.6321C1023.89 9.40209 1022.6 6.30601 1020.32 4.02201C1018.04 1.73801 1014.94 0.452267 1011.71 0.446367H580.744Z" fill="#E6E6E6"/>
<path d="M596.791 540.058H547.713V734.74H596.791V540.058Z" fill="#E0E0E0"/>
<path d="M587.462 734.74H596.791V708.226H577.686L587.462 734.74Z" fill="#FAFAFA"/>
<path d="M381.732 540.058H332.654V734.74H381.732V540.058Z" fill="#E0E0E0"/>
<path d="M596.791 540.058H373.608V718.47H596.791V540.058Z" fill="#FAFAFA"/>
<path d="M588.689 548.829V596.032H381.643V548.829H588.622M589.493 547.958H380.839V596.88H589.56V547.958H589.493Z" fill="#E0E0E0"/>
<path d="M382.915 734.74H373.608V708.226H392.69L382.915 734.74Z" fill="#FAFAFA"/>
<path d="M480.267 572.419C480.267 573.395 480.556 574.348 481.098 575.159C481.64 575.971 482.411 576.603 483.312 576.976C484.213 577.349 485.205 577.447 486.162 577.257C487.118 577.066 487.997 576.597 488.687 575.907C489.377 575.217 489.847 574.338 490.037 573.381C490.227 572.425 490.13 571.433 489.756 570.532C489.383 569.63 488.751 568.86 487.94 568.318C487.129 567.776 486.175 567.487 485.199 567.487C483.891 567.487 482.637 568.007 481.712 568.931C480.787 569.856 480.267 571.111 480.267 572.419Z" fill="#E6E6E6"/>
<path d="M588.689 605.651V652.854H381.643V605.651H588.622M589.493 604.803H380.839V653.725H589.56V604.825L589.493 604.803Z" fill="#E0E0E0"/>
<path d="M480.267 629.375C480.267 630.351 480.556 631.305 481.098 632.116C481.64 632.927 482.411 633.559 483.312 633.932C484.213 634.306 485.205 634.403 486.162 634.213C487.118 634.023 487.997 633.553 488.687 632.863C489.377 632.173 489.847 631.294 490.037 630.338C490.227 629.381 490.13 628.389 489.756 627.488C489.383 626.587 488.751 625.816 487.94 625.274C487.129 624.732 486.175 624.443 485.199 624.443C483.891 624.443 482.637 624.963 481.712 625.888C480.787 626.813 480.267 628.067 480.267 629.375Z" fill="#E6E6E6"/>
<path d="M588.689 662.496V709.721H381.643V662.496H588.622M589.493 661.625H380.839V710.569H589.56V661.625H589.493Z" fill="#E0E0E0"/>
<path d="M480.267 686.109C480.272 687.083 480.565 688.035 481.109 688.843C481.654 689.651 482.426 690.28 483.327 690.649C484.229 691.019 485.22 691.114 486.175 690.921C487.131 690.728 488.007 690.257 488.695 689.566C489.383 688.875 489.85 687.997 490.039 687.04C490.227 686.084 490.128 685.094 489.754 684.194C489.38 683.294 488.748 682.525 487.937 681.984C487.127 681.443 486.174 681.154 485.199 681.154C484.55 681.154 483.907 681.282 483.307 681.531C482.707 681.781 482.162 682.146 481.704 682.606C481.246 683.067 480.883 683.613 480.636 684.214C480.39 684.815 480.264 685.459 480.267 686.109Z" fill="#E6E6E6"/>
<path d="M351.758 426.993H302.68V734.762H351.758V426.993Z" fill="#E0E0E0"/>
<path d="M342.429 734.74H351.758V708.226H332.676L342.429 734.74Z" fill="#FAFAFA"/>
<path d="M168.347 426.993H119.269V734.762H168.347V426.993Z" fill="#E0E0E0"/>
<path d="M351.758 426.993H160.201V718.492H351.758V426.993Z" fill="#FAFAFA"/>
<path d="M343.501 435.206V501.202H168.458V435.206H343.501ZM344.527 434.202H167.387V502.161H344.483V434.224L344.527 434.202Z" fill="#E0E0E0"/>
<path d="M343.501 509.259V684.301H260.12V509.259H343.501ZM344.527 508.232H259.115V685.327H344.527V508.232Z" fill="#E0E0E0"/>
<path d="M251.84 509.259V684.301H168.458V509.259H251.84ZM252.844 508.232H167.387V685.327H252.799V508.232H252.844Z" fill="#E0E0E0"/>
<path d="M169.53 734.74H160.201V708.226H179.305L169.53 734.74Z" fill="#FAFAFA"/>
<path d="M251.036 468.237C251.032 469.218 251.318 470.179 251.86 470.996C252.402 471.814 253.174 472.452 254.079 472.831C254.984 473.209 255.981 473.311 256.943 473.122C257.906 472.933 258.791 472.463 259.486 471.771C260.181 471.079 260.655 470.196 260.848 469.235C261.041 468.273 260.945 467.276 260.57 466.369C260.196 465.462 259.561 464.687 258.746 464.142C257.93 463.596 256.971 463.305 255.991 463.305C254.68 463.305 253.424 463.824 252.495 464.748C251.566 465.673 251.042 466.927 251.036 468.237Z" fill="#E6E6E6"/>
<path d="M268.712 592.617C268.712 593.598 269.003 594.557 269.549 595.372C270.094 596.188 270.869 596.823 271.776 597.197C272.682 597.571 273.68 597.668 274.641 597.475C275.603 597.282 276.486 596.808 277.178 596.113C277.87 595.418 278.34 594.533 278.529 593.57C278.717 592.608 278.616 591.611 278.238 590.706C277.859 589.801 277.221 589.029 276.403 588.487C275.585 587.945 274.625 587.658 273.644 587.663C272.995 587.663 272.351 587.791 271.752 588.04C271.152 588.29 270.607 588.655 270.149 589.115C269.69 589.576 269.328 590.122 269.081 590.723C268.834 591.324 268.709 591.968 268.712 592.617Z" fill="#E6E6E6"/>
<path d="M233.382 592.617C233.387 593.592 233.68 594.543 234.224 595.351C234.769 596.16 235.541 596.788 236.442 597.158C237.344 597.528 238.335 597.623 239.29 597.43C240.246 597.237 241.122 596.765 241.81 596.075C242.498 595.384 242.965 594.505 243.154 593.549C243.342 592.593 243.243 591.602 242.869 590.702C242.495 589.802 241.863 589.033 241.052 588.492C240.242 587.951 239.289 587.663 238.314 587.663C237.665 587.663 237.022 587.791 236.422 588.04C235.822 588.289 235.277 588.655 234.819 589.115C234.361 589.575 233.998 590.122 233.751 590.723C233.505 591.324 233.379 591.968 233.382 592.617Z" fill="#E6E6E6"/>
<path d="M227.803 341.18H207.114C209.02 351.216 210.221 361.373 210.707 371.577C210.707 382.736 194.95 426.993 217.402 426.993C239.854 426.993 224.098 382.848 224.098 371.577C224.621 361.37 225.859 351.213 227.803 341.18Z" fill="#E0E0E0"/>
<path d="M149.086 386.441V399.832C149.11 407.011 151.972 413.888 157.048 418.965C162.124 424.041 169.002 426.903 176.181 426.926H189.572C196.75 426.903 203.628 424.041 208.704 418.965C213.78 413.888 216.642 407.011 216.666 399.832V386.441H149.086Z" fill="#F5F5F5"/>
<path d="M436.702 511.669C436.702 527.292 454.177 540.058 475.535 540.058H494.818C516.177 540.058 533.652 527.292 533.652 511.669H436.702Z" fill="#E0E0E0"/>
<path d="M947.656 488.77C935.962 498.323 919.803 515.798 905.028 540.393C895.164 556.774 889.227 573.87 886.616 596.59C886.616 570.924 886.772 543.361 886.861 517.338C889.83 510.642 896.614 495.198 901.48 483.012C917.705 442.326 923.798 432.305 938.372 397.221C957.856 350.352 977.808 294.869 972.095 299.311C960.445 308.349 915.808 391.931 910.987 403.894C897.847 435.819 889.724 469.584 886.906 503.991C886.906 479.441 887.085 457.123 887.174 439.804C887.486 383.317 888.446 365.082 888.915 359.458C890.722 356.602 892.843 353.276 894.092 351.491C904.582 336.314 908.622 323.414 918.486 300.784C932.502 268.757 944.554 211.867 941.028 214.724C926.342 226.687 914.782 252.353 899.56 285.094C884.339 317.835 888.691 336.649 885.678 364.591C885.054 370.082 884.563 390.793 884.205 419.472C880.277 388.896 872.868 368.765 859.365 350.464C842.76 327.945 826.691 312.746 814.907 304.801C803.123 296.856 835.261 352.16 850.616 376.219C864.298 397.734 876.907 416.682 884.094 435.363C883.714 474.264 883.536 523.498 883.536 569.272C880.01 548.427 874.252 525.953 866.574 508.567C857.334 487.677 843.14 455.628 831.824 444.759C829.124 442.147 843.653 504.482 852.982 521.043C862.311 537.603 869.163 553.248 875.033 562.644C876.394 564.876 880.947 573.29 883.536 578.155C883.536 634.107 883.848 683.475 884.339 700.281H886.75C886.594 695.951 886.549 667.473 886.616 629.8C892.441 609.356 905.743 586.011 916.723 564.719C928.686 541.665 959.351 479.285 947.656 488.77Z" fill="#E0E0E0"/>
<path d="M920.495 734.74H850.55L845.26 666.178H925.785L920.495 734.74Z" fill="#F0F0F0"/>
<path d="M930.985 674.168H840.038L837.449 651.024H933.596L930.985 674.168Z" fill="#F5F5F5"/>
<path d="M277.327 45.7524H152.233V183.121H277.327V45.7524Z" fill="#E0E0E0"/>
<path d="M290.874 45.7524H161.651V183.121H290.874V45.7524Z" fill="#F5F5F5"/>
<path d="M280.05 172.297V56.5768L172.476 56.5768V172.297H280.05Z" fill="white"/>
<path d="M253.96 144.221V84.6086H198.543V144.221H253.96Z" fill="#F5F5F5"/>
<path d="M915.161 61.7547H798.95V189.371H915.161V61.7547Z" fill="#E0E0E0"/>
<path d="M927.748 61.7547H807.721V189.371H927.748V61.7547Z" fill="#F5F5F5"/>
<path d="M917.705 179.305V71.8202H817.786V179.305H917.705Z" fill="white"/>
<path d="M867.735 156.741C884.954 156.741 898.913 142.782 898.913 125.563C898.913 108.343 884.954 94.384 867.735 94.384C850.515 94.384 836.556 108.343 836.556 125.563C836.556 142.782 850.515 156.741 867.735 156.741Z" fill="#F5F5F5"/>
<path d="M407.286 127.661H314.487V229.566H407.286V127.661Z" fill="#E0E0E0"/>
<path d="M417.329 127.661H321.472V229.566H417.329V127.661Z" fill="#F5F5F5"/>
<path d="M409.295 221.531V135.695H329.507V221.531H409.295Z" fill="white"/>
<path d="M369.412 156.897L347.585 194.705H391.24L369.412 156.897Z" fill="#F5F5F5"/>
<path d="M557.957 831.49C796.947 831.49 990.686 820.179 990.686 806.225C990.686 792.272 796.947 780.961 557.957 780.961C318.967 780.961 125.228 792.272 125.228 806.225C125.228 820.179 318.967 831.49 557.957 831.49Z" fill="#F5F5F5"/>
<path d="M779.466 241.997L757.326 233.07C757.326 233.07 728.111 286.344 719.742 289.044C708.36 292.704 684.792 302.881 670.82 304.667C668.923 306.899 665.821 313.84 666.111 316.362C684.881 322.633 726.125 314.308 734.963 307.747C755.072 292.861 779.466 241.997 779.466 241.997Z" fill="#E58A7B"/>
<path d="M786.273 229.878C790.402 245.122 768.039 275.787 768.039 275.787L738.735 259.361C738.735 259.361 744.225 246.751 750.921 233.918C761.656 213.184 781.564 212.492 786.273 229.878Z" fill="#407BFF"/>
<path opacity="0.2" d="M786.273 229.878C790.402 245.122 768.039 275.787 768.039 275.787L738.735 259.361C738.735 259.361 744.225 246.751 750.921 233.918C761.656 213.184 781.564 212.492 786.273 229.878Z" fill="black"/>
<path opacity="0.2" d="M750.363 265.922L761.901 272.395L763.932 236.975C757.215 242.131 752.483 257.665 750.363 265.922Z" fill="black"/>
<path d="M766.99 218.407C766.99 218.407 744.181 269.158 757.482 363.654H847.358C848.786 349.861 844.055 282.549 861.173 217.559C851.314 215.632 841.338 214.357 831.311 213.742C818.593 213.005 805.843 213.005 793.125 213.742C784.308 214.637 775.572 216.197 766.99 218.407Z" fill="#407BFF"/>
<path opacity="0.2" d="M766.99 218.407C766.99 218.407 744.181 269.158 757.482 363.654H847.358C848.786 349.861 844.055 282.549 861.173 217.559C851.314 215.632 841.338 214.357 831.311 213.742C818.593 213.005 805.843 213.005 793.125 213.742C784.308 214.637 775.572 216.197 766.99 218.407Z" fill="black"/>
<g style="mix-blend-mode:multiply">
<path d="M746.145 808.234C746.011 810.645 780.091 812.586 822.25 812.586C864.409 812.586 898.735 810.645 898.869 808.234C899.003 805.824 864.945 803.905 822.763 803.905C780.582 803.905 746.301 805.846 746.145 808.234Z" fill="#E8ECF1"/>
</g>
<path d="M806.138 744.901L790.197 751.072L803.928 786.544L819.869 780.373L806.138 744.901Z" fill="#E58A7B"/>
<path d="M877.22 791.071H860.414L854.254 752.171H871.06L877.22 791.071Z" fill="#E58A7B"/>
<path d="M859.254 789.13H878.135C878.462 789.131 878.779 789.248 879.028 789.46C879.278 789.673 879.443 789.967 879.496 790.29L881.929 805.221C881.98 805.596 881.95 805.977 881.841 806.339C881.732 806.701 881.546 807.035 881.296 807.319C881.046 807.603 880.738 807.829 880.393 807.983C880.048 808.137 879.674 808.215 879.295 808.212C872.712 808.1 869.542 807.698 861.24 807.698C856.129 807.698 845.617 808.234 838.52 808.234C831.423 808.234 830.954 801.271 833.878 800.624C847.001 797.789 852.089 793.928 856.464 790.179C857.235 789.501 858.227 789.128 859.254 789.13Z" fill="#263238"/>
<path d="M803.458 783.372L821.313 778.149C821.631 778.059 821.971 778.081 822.276 778.211C822.58 778.341 822.831 778.571 822.987 778.863L829.682 792.254C829.838 792.594 829.917 792.964 829.915 793.337C829.913 793.711 829.829 794.08 829.67 794.418C829.51 794.755 829.279 795.054 828.992 795.294C828.705 795.533 828.369 795.707 828.008 795.803C821.514 797.588 817.162 798.682 809.038 801.048C803.436 802.677 797.722 805.333 792.187 807.096C788.349 808.323 779.332 808.368 774.668 808.368C767.771 808.368 766.231 801.092 769.2 800.758C776.676 799.932 777.68 800.311 781.809 798.236C788.565 795.282 794.688 791.054 799.843 785.782C800.815 784.674 802.062 783.843 803.458 783.372Z" fill="#263238"/>
<path d="M673.632 304.578L655.153 296.833L647.542 317.321C655.117 318.475 662.822 318.475 670.396 317.321L673.632 304.578Z" fill="#E58A7B"/>
<path d="M641.405 296.297L640.914 309.912L647.543 317.277L655.153 296.788L641.405 296.297Z" fill="#E58A7B"/>
<path d="M808.324 747.913L792.334 754.087L799.416 772.43L815.406 766.256L808.324 747.913Z" fill="#CF6F64"/>
<path d="M871.06 752.171H854.254L857.446 772.235H874.252L871.06 752.171Z" fill="#CF6F64"/>
<path opacity="0.2" d="M754.626 338.1C754.961 342.139 755.34 346.268 755.831 350.509L822.652 328.815C833.087 325.723 842.156 319.165 848.363 310.224C848.63 304.265 848.965 297.994 849.478 291.454C849.702 288.285 849.969 285.027 850.26 281.724C850.55 278.421 850.951 274.76 851.375 271.234L754.626 338.1Z" fill="black"/>
<path d="M776.453 264.896L774.221 264.628C775.538 253.469 783.863 244.675 792.634 244.898V247.13C784.956 246.974 777.636 254.897 776.453 264.896Z" fill="white"/>
<path d="M788.349 285.495H787.969V283.264C795.647 283.554 802.856 275.541 804.038 265.565L806.27 265.833C805.087 276.747 797.03 285.495 788.349 285.495Z" fill="white"/>
<path d="M830.061 170.735C826.915 183.032 823.21 205.551 831.311 213.742C831.311 213.742 825.642 226.218 802.811 226.218C781.943 226.218 793.125 213.742 793.125 213.742C807.007 210.484 807.252 200.351 805.422 190.754L830.061 170.735Z" fill="#E58A7B"/>
<path d="M820.018 178.903L805.444 190.754C805.896 192.96 806.157 195.2 806.225 197.45C810.488 201.69 819.036 190.955 819.907 185.465C820.349 183.303 820.387 181.079 820.018 178.903Z" fill="#CF6F64"/>
<path d="M780.381 170.579C781.395 172.336 782.761 173.866 784.393 175.072C786.025 176.277 787.888 177.134 789.866 177.587C795.223 178.769 797.901 173.837 796.428 168.882C795.111 164.419 790.714 158.415 785.269 159.442C784.102 159.682 783.01 160.198 782.084 160.947C781.158 161.697 780.425 162.657 779.947 163.747C779.468 164.838 779.258 166.027 779.333 167.216C779.409 168.404 779.768 169.557 780.381 170.579Z" fill="#CF6F64"/>
<path d="M789.241 131.232C780.894 135.048 777.948 168.213 788.438 173.123C798.927 178.033 805.043 123.978 789.241 131.232Z" fill="#263238"/>
<path d="M832.606 152.233C830.597 168.882 830.374 178.68 821.447 187.206C818.68 190.035 815.186 192.045 811.349 193.013C807.513 193.981 803.483 193.87 799.706 192.693C795.928 191.515 792.549 189.317 789.943 186.34C787.336 183.363 785.602 179.723 784.934 175.823C782.233 160.87 785.961 136.164 802.655 129.535C806.162 127.988 810.02 127.407 813.827 127.853C817.635 128.299 821.254 129.755 824.309 132.07C827.365 134.386 829.745 137.476 831.204 141.022C832.663 144.567 833.147 148.438 832.606 152.233Z" fill="#E58A7B"/>
<path d="M805.176 139.846C817.541 136.699 826.624 134.557 823.366 144.846C819.058 158.594 813.881 171.895 820.822 172.498C825.062 172.877 843.809 164.932 841.421 156.875C839.346 149.867 848.117 147.948 849.679 144.399C855.46 131.544 838.922 133.24 841.868 125.429C844.814 117.617 828.477 105.03 819.549 111.301C805.02 121.434 780.091 121.278 793.192 104.606C802.588 92.7102 785.827 95.1428 785.827 95.1428C785.827 95.1428 795.959 101.146 778.908 110.431C760.875 120.34 777.413 146.966 805.176 139.846Z" fill="#263238"/>
<path d="M839.167 170.579C836.726 174.111 833.059 176.609 828.879 177.587C823.366 178.769 821.246 173.837 823.321 168.882C825.174 164.419 830.262 158.415 835.529 159.442C840.796 160.468 842.002 166.204 839.167 170.579Z" fill="#E58A7B"/>
<path d="M757.482 363.654C757.482 363.654 742.395 498.68 741.212 549.922C740.007 603.218 792.344 769.512 792.344 769.512L819.126 758.353C819.126 758.353 787.88 606.41 792.344 554.074C797.075 497.006 816.626 363.743 816.626 363.743L757.482 363.654Z" fill="#407BFF"/>
<path opacity="0.2" d="M794.977 400.725C782.948 425.677 791.049 475.022 797.566 504.259C800.043 483.615 802.989 461.207 805.779 440.474C805.511 408.603 803.034 383.986 794.977 400.725Z" fill="black"/>
<path d="M817.943 749.515C818.076 749.515 821.112 758.04 821.112 758.04L790.223 771.03L785.358 761.968L817.943 749.515Z" fill="#407BFF"/>
<path d="M789.375 363.654C789.375 363.654 800.914 492.073 808.547 540.169C816.938 592.863 849.835 768.351 849.835 768.351H880.612C880.612 768.351 862.177 597.126 858.696 544.945C854.902 488.346 847.358 363.654 847.358 363.654H789.375Z" fill="#407BFF"/>
<path d="M881.081 760.339C881.215 760.339 882.108 768.932 882.108 768.932H848.273L845.863 759.067L881.081 760.339Z" fill="#407BFF"/>
<path opacity="0.2" d="M869.297 750.162C869.227 750.163 869.159 750.139 869.106 750.093C869.053 750.048 869.018 749.986 869.007 749.917C868.828 748.354 852.201 593.689 849.077 546.82C845.684 495.979 838.855 383.205 838.788 382.067C838.785 382.03 838.789 381.992 838.801 381.957C838.813 381.922 838.833 381.89 838.858 381.863C838.883 381.835 838.914 381.814 838.948 381.799C838.982 381.784 839.019 381.776 839.056 381.776C839.129 381.776 839.2 381.804 839.253 381.853C839.307 381.903 839.34 381.971 839.346 382.044C839.346 383.183 846.242 495.868 849.635 546.798C852.759 593.666 869.386 748.22 869.542 749.894C869.549 749.931 869.547 749.969 869.538 750.005C869.529 750.042 869.512 750.075 869.489 750.105C869.466 750.134 869.437 750.159 869.404 750.176C869.371 750.194 869.334 750.204 869.297 750.207V750.162Z" fill="black"/>
<path d="M807.074 156.875C807.074 158.237 806.225 159.33 805.333 159.33C804.44 159.33 803.793 158.237 803.882 156.875C803.971 155.514 804.73 154.42 805.623 154.42C806.516 154.42 807.163 155.536 807.074 156.875Z" fill="#263238"/>
<path d="M791.763 156.875C791.763 158.237 790.893 159.33 790.023 159.33C789.152 159.33 788.483 158.237 788.55 156.875C788.616 155.514 789.42 154.42 790.313 154.42C791.205 154.42 791.853 155.536 791.763 156.875Z" fill="#263238"/>
<path d="M796.584 157.567C794.721 161.724 792.32 165.619 789.442 169.15C791.674 171.382 795.847 170.356 795.847 170.356L796.584 157.567Z" fill="#DF5753"/>
<path d="M796.986 176.047C796.934 176.047 796.883 176.036 796.835 176.016C796.788 175.995 796.745 175.965 796.709 175.928C796.674 175.89 796.646 175.846 796.629 175.797C796.611 175.748 796.603 175.697 796.606 175.645C796.612 175.536 796.659 175.434 796.738 175.359C796.817 175.285 796.922 175.243 797.03 175.243C798.737 175.255 800.425 174.884 801.97 174.158C803.515 173.432 804.878 172.369 805.958 171.047C806.035 170.98 806.134 170.943 806.237 170.943C806.339 170.943 806.438 170.98 806.516 171.047C806.588 171.122 806.628 171.222 806.628 171.326C806.628 171.43 806.588 171.53 806.516 171.605C805.36 173.01 803.903 174.138 802.254 174.907C800.605 175.675 798.805 176.065 796.986 176.047Z" fill="#263238"/>
<path d="M809.797 152.769C809.689 152.823 809.571 152.852 809.451 152.852C809.33 152.852 809.212 152.823 809.105 152.769C808.27 152.229 807.32 151.893 806.331 151.788C805.342 151.684 804.343 151.813 803.414 152.166C803.323 152.211 803.224 152.238 803.123 152.245C803.022 152.251 802.921 152.237 802.825 152.204C802.729 152.171 802.641 152.119 802.566 152.051C802.491 151.983 802.43 151.901 802.387 151.809C802.304 151.61 802.302 151.387 802.381 151.187C802.46 150.987 802.615 150.826 802.811 150.738C803.978 150.261 805.242 150.073 806.497 150.19C807.752 150.306 808.961 150.724 810.02 151.407C810.105 151.465 810.178 151.54 810.235 151.627C810.291 151.713 810.33 151.81 810.349 151.912C810.367 152.014 810.366 152.118 810.344 152.219C810.322 152.32 810.28 152.416 810.221 152.501C810.108 152.629 809.961 152.722 809.797 152.769Z" fill="#263238"/>
<path d="M785.849 148.305C785.73 148.276 785.622 148.214 785.536 148.127C785.462 148.054 785.403 147.967 785.363 147.871C785.323 147.775 785.302 147.672 785.302 147.569C785.302 147.465 785.323 147.362 785.363 147.266C785.403 147.17 785.462 147.083 785.536 147.011C786.392 146.051 787.457 145.302 788.65 144.822C789.842 144.342 791.129 144.144 792.41 144.243C792.513 144.259 792.611 144.296 792.699 144.351C792.787 144.406 792.863 144.479 792.921 144.565C792.98 144.651 793.02 144.748 793.04 144.85C793.06 144.952 793.058 145.057 793.035 145.158C792.988 145.365 792.866 145.547 792.693 145.67C792.521 145.793 792.309 145.849 792.098 145.828C791.084 145.764 790.069 145.932 789.129 146.318C788.189 146.705 787.35 147.3 786.675 148.06C786.573 148.172 786.442 148.255 786.296 148.299C786.151 148.342 785.996 148.344 785.849 148.305Z" fill="#263238"/>
<path d="M869.81 239.52L846.599 233.338C846.599 233.338 823.835 289.379 815.778 293.017C804.842 298.016 777.145 315.335 765.361 323.526C764.713 326.316 765.227 333.703 766.7 335.734C786.786 332.074 825.241 317.277 833.275 309.755C851.598 292.593 869.81 239.52 869.81 239.52Z" fill="#E58A7B"/>
<path d="M853.607 792.076C852.475 792.165 851.346 791.858 850.416 791.205C850.128 790.946 849.913 790.616 849.792 790.248C849.671 789.88 849.647 789.487 849.724 789.107C849.738 788.87 849.816 788.641 849.949 788.445C850.083 788.248 850.267 788.092 850.483 787.992C852.357 787.032 857.602 790.357 858.205 790.737C858.271 790.777 858.322 790.839 858.35 790.911C858.378 790.984 858.382 791.064 858.361 791.138C858.342 791.216 858.303 791.288 858.248 791.347C858.194 791.405 858.125 791.449 858.048 791.473C856.594 791.831 855.105 792.033 853.607 792.076ZM851.375 788.594C851.206 788.556 851.031 788.556 850.862 788.594C850.776 788.637 850.706 788.705 850.658 788.788C850.61 788.872 850.588 788.967 850.594 789.063C850.535 789.322 850.545 789.593 850.623 789.848C850.701 790.103 850.845 790.332 851.041 790.513C851.911 791.295 854.098 791.384 856.977 790.826C855.263 789.697 853.332 788.937 851.308 788.594H851.375Z" fill="#407BFF"/>
<path d="M857.937 791.473C857.879 791.492 857.816 791.492 857.758 791.473C856.085 790.536 852.938 786.853 853.406 784.979C853.477 784.681 853.644 784.416 853.883 784.226C854.122 784.036 854.418 783.931 854.723 783.93C855.023 783.89 855.327 783.915 855.616 784.003C855.905 784.092 856.171 784.242 856.397 784.443C858.249 786.028 858.361 790.893 858.361 791.138C858.372 791.212 858.358 791.287 858.322 791.351C858.285 791.416 858.229 791.467 858.16 791.496C858.085 791.511 858.007 791.503 857.937 791.473ZM854.946 784.666H854.79C854.277 784.666 854.21 784.956 854.188 785.068C853.92 786.161 855.906 788.951 857.558 790.268C857.55 788.383 856.966 786.545 855.884 785.001C855.625 784.775 855.29 784.655 854.946 784.666Z" fill="#407BFF"/>
<path d="M794.352 789.286C792.986 789.762 791.5 789.762 790.134 789.286C789.824 789.118 789.561 788.875 789.37 788.578C789.179 788.282 789.065 787.942 789.04 787.59C789.012 787.369 789.04 787.145 789.122 786.938C789.204 786.731 789.337 786.548 789.509 786.407C791.295 784.8 798.593 786.407 799.418 786.719C799.497 786.74 799.566 786.786 799.615 786.851C799.664 786.916 799.689 786.995 799.686 787.077C799.69 787.16 799.668 787.243 799.624 787.315C799.581 787.386 799.517 787.443 799.441 787.478C797.797 788.22 796.095 788.825 794.352 789.286ZM790.714 786.63C790.459 786.682 790.221 786.797 790.022 786.965C789.951 787.018 789.897 787.09 789.865 787.173C789.834 787.256 789.826 787.347 789.844 787.434C789.858 787.668 789.931 787.895 790.056 788.094C790.181 788.292 790.353 788.457 790.558 788.572C791.741 789.197 794.486 788.706 798.035 787.21C795.644 786.608 793.17 786.411 790.714 786.63Z" fill="#407BFF"/>
<path d="M799.374 787.478H799.195C796.963 787.076 792.5 784.51 792.366 782.591C792.366 782.144 792.567 781.519 793.638 781.162C794 781.033 794.384 780.979 794.767 781.002C795.151 781.025 795.526 781.125 795.87 781.296C798.28 782.479 799.552 786.764 799.619 786.965C799.635 787.032 799.633 787.103 799.613 787.169C799.594 787.236 799.557 787.296 799.508 787.344C799.474 787.399 799.428 787.445 799.374 787.478ZM794.084 781.832H793.861C793.169 782.077 793.169 782.367 793.169 782.457C793.169 783.617 796.405 785.737 798.659 786.452C798.14 784.659 797.041 783.089 795.535 781.988C795.087 781.76 794.571 781.704 794.084 781.832Z" fill="#407BFF"/>
<path d="M767.258 322.209L743.98 332.922L741.279 339.617L749.872 345.398C749.872 345.398 765.941 343.657 770.516 333.324L767.258 322.209Z" fill="#E58A7B"/>
<path d="M768.24 336.113C767.72 331.641 766.243 327.333 763.91 323.481L767.593 320.714C770.363 325.151 772.13 330.14 772.771 335.332L768.24 336.113Z" fill="#263238"/>
<path d="M772.212 325.378C772.704 326.152 772.946 327.059 772.905 327.975C772.863 328.892 772.54 329.773 771.98 330.499C771.42 331.225 770.65 331.762 769.774 332.035C768.899 332.308 767.96 332.304 767.086 332.025C766.213 331.746 765.446 331.204 764.892 330.474C764.337 329.743 764.02 328.86 763.985 327.943C763.95 327.027 764.198 326.122 764.696 325.351C765.194 324.581 765.917 323.982 766.767 323.637C767.721 323.151 768.828 323.061 769.848 323.387C770.867 323.713 771.717 324.429 772.212 325.378Z" fill="#263238"/>
<path d="M728.245 341.581L731.348 344.706L752.238 335.778L743.98 332.922L728.245 341.581Z" fill="#E58A7B"/>
<path opacity="0.2" d="M817.943 749.515C818.076 749.515 821.112 758.04 821.112 758.04L790.223 771.03L785.358 761.968L817.943 749.515Z" fill="black"/>
<path opacity="0.2" d="M881.081 760.339C881.215 760.339 882.108 768.932 882.108 768.932H848.273L845.863 759.067L881.081 760.339Z" fill="black"/>
<path d="M875.859 233.092C881.996 252.888 858.004 279.961 858.004 279.961L824.861 266.436C828.79 254.994 833.319 243.767 838.431 232.802C848.608 210.863 869.654 213.117 875.859 233.092Z" fill="#407BFF"/>
<path opacity="0.2" d="M875.859 233.092C881.996 252.888 858.004 279.961 858.004 279.961L824.861 266.436C828.79 254.994 833.319 243.767 838.431 232.802C848.608 210.863 869.654 213.117 875.859 233.092Z" fill="black"/>
<path d="M546.53 34.7496H532.269V37.0484H546.53V34.7496Z" fill="#407BFF"/>
<path d="M731.142 125.733L729.417 164.037L731.713 164.141L733.439 125.837L731.142 125.733Z" fill="#407BFF"/>
<path d="M726.705 45.0606H463.35L438.844 593.465H702.2L726.705 45.0606Z" fill="#407BFF"/>
<path opacity="0.56" d="M718.849 52.6042H455.494L430.988 601.009H694.344L718.849 52.6042Z" fill="#FAFAFA"/>
<path opacity="0.07" d="M710.993 60.1255H447.638L423.11 608.53H686.466L710.993 60.1255Z" fill="#407BFF"/>
<path d="M681.02 299.31H456.23L454.355 341.269H679.145L681.02 299.31Z" fill="white"/>
<path d="M579.851 268.69H457.592L456.766 287.46H579.025L579.851 268.69Z" fill="#407BFF"/>
<path d="M675.954 412.553H451.164L449.289 454.512H674.079L675.954 412.553Z" fill="white"/>
<path opacity="0.47" d="M634.732 511.178H483.57L481.316 561.461H632.478L634.732 511.178Z" fill="#407BFF"/>
<path d="M624.622 569.272H473.46C473.394 569.289 473.325 569.289 473.259 569.272C473.237 569.207 473.237 569.137 473.259 569.072L475.491 518.766C475.491 518.732 475.498 518.698 475.511 518.667C475.525 518.635 475.545 518.607 475.57 518.584C475.596 518.561 475.625 518.543 475.658 518.532C475.69 518.522 475.725 518.517 475.759 518.521H626.92C626.948 518.507 626.979 518.5 627.01 518.5C627.041 518.5 627.071 518.507 627.099 518.521C627.115 518.548 627.123 518.578 627.123 518.61C627.123 518.641 627.115 518.672 627.099 518.699L624.912 569.116C624.885 569.169 624.843 569.211 624.791 569.239C624.739 569.267 624.68 569.279 624.622 569.272ZM473.728 568.737H624.354L626.586 518.967H475.96L473.728 568.737Z" fill="white"/>
<path d="M553.448 381.933H452.525L451.699 400.725H552.6L553.448 381.933Z" fill="#407BFF"/>
<path d="M631.853 163.772C631.276 175.983 626.933 187.716 619.421 197.361C613.861 204.646 606.705 210.56 598.503 214.649C590.301 218.738 581.271 220.894 572.107 220.951C564.701 221.007 557.362 219.547 550.542 216.66C543.721 213.773 537.565 209.519 532.45 204.163C527.336 198.806 523.373 192.459 520.804 185.512C518.236 178.566 517.117 171.167 517.516 163.772C518.301 148.425 524.919 133.959 536.016 123.33C547.114 112.702 561.852 106.714 577.218 106.592C584.629 106.523 591.976 107.974 598.804 110.857C605.633 113.739 611.798 117.991 616.918 123.35C622.039 128.709 626.006 135.06 628.574 142.013C631.143 148.965 632.259 156.371 631.853 163.772Z" fill="white"/>
<path d="M637.231 118.555C637.086 121.802 635.931 124.922 633.928 127.482C632.446 129.417 630.542 130.988 628.36 132.075C626.179 133.162 623.778 133.736 621.341 133.753C618.979 133.768 616.651 133.204 614.558 132.111C612.464 131.017 610.671 129.428 609.334 127.482C607.563 124.852 606.686 121.722 606.834 118.555C607.05 114.48 608.812 110.642 611.76 107.822C614.709 105.001 618.622 103.412 622.702 103.378C624.671 103.36 626.622 103.746 628.435 104.51C630.249 105.275 631.887 106.403 633.248 107.825C634.609 109.247 635.665 110.932 636.35 112.778C637.035 114.623 637.335 116.589 637.231 118.555Z" fill="#407BFF"/>
<path d="M480.446 320.29C480.338 322.088 479.553 323.779 478.249 325.022C476.944 326.264 475.217 326.966 473.415 326.985C472.545 326.996 471.683 326.827 470.88 326.491C470.078 326.155 469.353 325.657 468.751 325.03C468.148 324.402 467.681 323.658 467.378 322.843C467.075 322.027 466.942 321.158 466.988 320.29C467.084 318.488 467.866 316.79 469.173 315.546C470.48 314.301 472.213 313.603 474.018 313.594C474.887 313.587 475.748 313.757 476.549 314.095C477.35 314.432 478.073 314.93 478.675 315.557C479.277 316.183 479.744 316.927 480.049 317.74C480.353 318.554 480.488 319.422 480.446 320.29Z" fill="#263238"/>
<path d="M510.531 320.29C510.429 322.09 509.645 323.784 508.339 325.028C507.034 326.271 505.304 326.971 503.5 326.985C502.632 326.992 501.772 326.822 500.972 326.484C500.173 326.147 499.451 325.649 498.851 325.022C498.251 324.394 497.785 323.651 497.483 322.837C497.181 322.024 497.049 321.156 497.095 320.29C497.192 318.491 497.97 316.798 499.272 315.553C500.575 314.309 502.302 313.609 504.103 313.594C504.973 313.584 505.836 313.752 506.638 314.088C507.44 314.425 508.165 314.922 508.767 315.549C509.37 316.177 509.837 316.921 510.14 317.737C510.444 318.552 510.576 319.421 510.531 320.29Z" fill="#263238"/>
<path d="M540.638 320.29C540.536 322.09 539.752 323.784 538.447 325.028C537.141 326.271 535.411 326.971 533.608 326.985C532.739 326.992 531.878 326.822 531.077 326.484C530.276 326.147 529.553 325.65 528.951 325.023C528.349 324.396 527.882 323.653 527.577 322.839C527.273 322.025 527.137 321.158 527.18 320.29C527.282 318.489 528.065 316.795 529.371 315.552C530.677 314.308 532.407 313.608 534.21 313.594C535.08 313.584 535.943 313.752 536.745 314.088C537.547 314.425 538.272 314.922 538.875 315.549C539.477 316.177 539.944 316.921 540.248 317.737C540.551 318.552 540.684 319.421 540.638 320.29Z" fill="#263238"/>
<path d="M475.379 433.533C475.272 435.331 474.487 437.022 473.182 438.264C471.878 439.507 470.15 440.209 468.349 440.228C467.48 440.235 466.619 440.065 465.818 439.727C465.017 439.39 464.294 438.893 463.692 438.266C463.09 437.639 462.623 436.896 462.318 436.082C462.014 435.268 461.879 434.401 461.921 433.533C462.023 431.732 462.807 430.038 464.112 428.795C465.418 427.551 467.148 426.851 468.951 426.837C469.82 426.83 470.682 427 471.482 427.338C472.283 427.675 473.007 428.173 473.608 428.799C474.21 429.426 474.678 430.169 474.982 430.983C475.287 431.797 475.422 432.665 475.379 433.533Z" fill="#263238"/>
<path d="M505.464 433.533C505.362 435.329 504.582 437.02 503.281 438.263C501.98 439.506 500.256 440.208 498.456 440.228C497.586 440.238 496.724 440.07 495.921 439.734C495.119 439.398 494.394 438.9 493.792 438.273C493.19 437.645 492.722 436.901 492.419 436.086C492.116 435.27 491.983 434.401 492.029 433.533C492.131 431.732 492.914 430.038 494.22 428.795C495.526 427.551 497.256 426.851 499.059 426.837C499.927 426.83 500.787 427 501.587 427.338C502.386 427.676 503.108 428.173 503.708 428.801C504.309 429.428 504.774 430.171 505.076 430.985C505.378 431.799 505.51 432.666 505.464 433.533Z" fill="#263238"/>
<path d="M535.639 433.533C535.537 435.333 534.753 437.027 533.447 438.27C532.142 439.514 530.411 440.214 528.608 440.228C527.74 440.232 526.881 440.059 526.081 439.721C525.282 439.382 524.56 438.885 523.959 438.259C523.358 437.633 522.89 436.891 522.584 436.078C522.279 435.266 522.141 434.4 522.181 433.533C522.288 431.734 523.073 430.043 524.378 428.801C525.682 427.558 527.409 426.857 529.211 426.837C530.081 426.827 530.943 426.995 531.746 427.331C532.548 427.668 533.273 428.165 533.875 428.792C534.478 429.42 534.945 430.164 535.248 430.98C535.552 431.795 535.684 432.664 535.639 433.533Z" fill="#263238"/>
<path d="M565.679 433.533C565.572 435.331 564.787 437.022 563.482 438.264C562.178 439.507 560.45 440.209 558.649 440.228C557.781 440.232 556.921 440.059 556.122 439.721C555.323 439.382 554.6 438.885 553.999 438.259C553.398 437.633 552.931 436.891 552.625 436.078C552.319 435.266 552.182 434.4 552.221 433.533C552.328 431.734 553.113 430.043 554.418 428.801C555.723 427.558 557.45 426.857 559.251 426.837C560.12 426.83 560.982 427 561.782 427.338C562.583 427.675 563.307 428.173 563.908 428.799C564.51 429.426 564.978 430.169 565.282 430.983C565.587 431.797 565.722 432.665 565.679 433.533Z" fill="#263238"/>
<path d="M595.898 433.533C595.791 435.331 595.006 437.022 593.701 438.264C592.396 439.507 590.669 440.209 588.868 440.228C587.998 440.238 587.135 440.07 586.333 439.734C585.531 439.398 584.806 438.9 584.203 438.273C583.601 437.645 583.134 436.901 582.83 436.086C582.527 435.27 582.394 434.401 582.44 433.533C582.542 431.732 583.325 430.038 584.631 428.795C585.937 427.551 587.667 426.851 589.47 426.837C590.339 426.83 591.2 427 592.001 427.338C592.802 427.675 593.525 428.173 594.127 428.799C594.729 429.426 595.196 430.169 595.501 430.983C595.805 431.797 595.94 432.665 595.898 433.533Z" fill="#263238"/>
<path d="M591.33 160.793C600.672 151.658 601.167 137.016 592.437 128.089C583.707 119.162 569.058 119.33 559.716 128.465C550.375 137.6 549.879 152.243 558.609 161.17C567.339 170.097 581.989 169.929 591.33 160.793Z" fill="#407BFF"/>
<path d="M619.422 197.36C613.861 204.645 606.705 210.56 598.503 214.649C590.301 218.738 581.271 220.894 572.107 220.951C563.22 221.026 554.451 218.914 546.573 214.8C538.695 210.686 531.951 204.697 526.935 197.36C537.781 186.558 554.944 179.506 573.959 179.506C592.974 179.506 609.535 186.558 619.422 197.36Z" fill="#407BFF"/>
<path opacity="0.1" d="M591.33 160.793C600.672 151.658 601.167 137.016 592.437 128.089C583.707 119.162 569.058 119.33 559.716 128.465C550.375 137.6 549.879 152.243 558.609 161.17C567.339 170.097 581.989 169.929 591.33 160.793Z" fill="white"/>
<path opacity="0.1" d="M619.422 197.36C613.861 204.645 606.705 210.56 598.503 214.649C590.301 218.738 581.271 220.894 572.107 220.951C563.22 221.026 554.451 218.914 546.573 214.8C538.695 210.686 531.951 204.697 526.935 197.36C537.781 186.558 554.944 179.506 573.959 179.506C592.974 179.506 609.535 186.558 619.422 197.36Z" fill="white"/>
<path d="M291.053 351.379C288.932 356.021 286.701 361.132 284.759 366.087C282.817 371.041 280.831 376.152 279.112 381.241C275.604 391.269 272.931 401.571 271.122 412.04L270.631 415.321C270.585 415.884 270.638 416.45 270.788 416.995C271.314 418.844 272.144 420.594 273.243 422.173C276.109 426.258 279.434 430.003 283.152 433.332C287.072 436.978 291.185 440.413 295.472 443.62C299.757 446.924 304.265 450.137 308.706 453.173L304.533 461.006C293.928 456.386 283.861 450.615 274.515 443.799C269.528 440.162 265.028 435.902 261.124 431.122C258.81 428.277 257.005 425.053 255.79 421.592C255.083 419.431 254.722 417.171 254.719 414.897C254.719 414.361 254.719 413.58 254.719 413.201V412.107L254.942 409.875C256.221 398.247 258.666 386.778 262.24 375.639C263.981 370.149 265.833 364.681 267.953 359.347C270.073 354.012 272.261 348.79 274.961 343.367L291.053 351.379Z" fill="#E58A7B"/>
<path d="M305.56 451.789L321.339 443.799L317.254 461.118C317.254 461.118 306.43 464.153 301.408 458.886L305.56 451.789Z" fill="#E58A7B"/>
<path d="M335.779 446.633L331.583 460.962L317.254 461.118L321.339 443.799L335.779 446.633Z" fill="#E58A7B"/>
<path d="M358.052 267.819C358.896 270.912 360.071 273.905 361.556 276.747C361.122 277.239 360.563 277.604 359.939 277.805C359.314 278.005 358.647 278.033 358.008 277.885L358.052 267.819Z" fill="#DF5753"/>
<path d="M357.584 267.953C358.508 267.953 359.257 266.804 359.257 265.387C359.257 263.969 358.508 262.82 357.584 262.82C356.659 262.82 355.91 263.969 355.91 265.387C355.91 266.804 356.659 267.953 357.584 267.953Z" fill="#263238"/>
<path d="M357.093 262.909L360.485 261.95C360.485 261.95 358.833 264.583 357.093 262.909Z" fill="#263238"/>
<path d="M314.465 284.201C316.495 294.579 318.526 313.616 311.251 320.557C311.251 320.557 314.107 331.092 333.413 331.092C354.637 331.092 343.545 320.557 343.545 320.557C331.962 317.79 332.252 309.197 334.283 301.118L314.465 284.201Z" fill="#E58A7B"/>
<path d="M308.818 260.544C309.889 277.885 309.979 285.25 318.727 294.155C331.918 307.546 352.986 302.457 357.115 285.228C360.842 269.605 358.476 243.894 341.492 236.998C337.764 235.462 333.706 234.903 329.701 235.373C325.696 235.843 321.878 237.326 318.607 239.684C315.336 242.041 312.72 245.194 311.007 248.844C309.294 252.494 308.541 256.521 308.818 260.544Z" fill="#E58A7B"/>
<path d="M310.537 241.037C301.832 244.207 290.227 241.841 294.78 268.69C299.601 297.123 292.191 306.475 292.191 306.475C292.191 306.475 325.2 313.505 358.9 306.051C358.9 306.051 348.612 288.062 351.491 274.805C355.173 258.066 352.272 251.884 352.272 251.884C352.272 251.884 322.767 236.574 310.537 241.037Z" fill="#263238"/>
<path d="M347.362 269.582C347.371 272.88 348.315 276.107 350.085 278.889C352.45 282.505 355.24 281.121 355.932 277.282C356.557 273.912 356.088 267.953 353.075 265.632C350.062 263.311 347.406 265.588 347.362 269.582Z" fill="#E58A7B"/>
<path d="M302.971 243.961C300.471 236.931 312.389 226.106 337.609 230.57C362.828 235.034 363.922 256.035 363.922 256.035L358.833 249.965L359.056 256.348L333.145 261.325L302.971 243.961Z" fill="#263238"/>
<path d="M305.113 321.74C304.964 320.721 305.219 319.684 305.824 318.851C306.428 318.017 307.335 317.452 308.349 317.277C316.205 315.982 334.06 313.349 343.032 314.599C349.727 315.536 351.468 319.419 351.758 322.611C351.804 323.17 351.729 323.732 351.539 324.259C351.349 324.787 351.049 325.268 350.658 325.669C350.267 326.071 349.794 326.384 349.272 326.588C348.749 326.792 348.189 326.882 347.63 326.851L308.84 325.11C307.926 325.064 307.056 324.704 306.376 324.09C305.697 323.475 305.251 322.646 305.113 321.74Z" fill="#407BFF"/>
<path opacity="0.6" d="M305.113 321.74C304.964 320.721 305.219 319.684 305.824 318.851C306.428 318.017 307.335 317.452 308.349 317.277C316.205 315.982 334.06 313.349 343.032 314.599C349.727 315.536 351.468 319.419 351.758 322.611C351.804 323.17 351.729 323.732 351.539 324.259C351.349 324.787 351.049 325.268 350.658 325.669C350.267 326.071 349.794 326.384 349.272 326.588C348.749 326.792 348.189 326.882 347.63 326.851L308.84 325.11C307.926 325.064 307.056 324.704 306.376 324.09C305.697 323.475 305.251 322.646 305.113 321.74Z" fill="black"/>
<path d="M327.543 711.641L341.938 721.639L366.02 688.988L351.624 679.011L327.543 711.641Z" fill="#E58A7B"/>
<path d="M293.976 710.993L309.175 719.653L330.489 685.127L315.29 676.467L293.976 710.993Z" fill="#E58A7B"/>
<path d="M365.997 688.988L353.588 705.816L339.193 695.839L351.602 679.011L365.997 688.988Z" fill="#CF6F64"/>
<path d="M315.268 676.467L330.489 685.149L319.508 702.936L304.287 694.255L315.268 676.467Z" fill="#CF6F64"/>
<path d="M339.684 430.743C339.684 430.743 395.882 501.559 385.325 569.295C376.822 623.997 327.499 698.071 327.499 698.071L304.31 686.555C320.655 653.803 334.603 619.91 346.045 585.141C349.573 574.346 350.603 562.891 349.057 551.64C347.51 540.389 343.428 529.637 337.118 520.194C308.64 478.615 263.021 503.366 293.709 430.743H339.684Z" fill="#407BFF"/>
<path opacity="0.6" d="M339.684 430.743C339.684 430.743 395.882 501.559 385.325 569.295C376.822 623.997 327.499 698.071 327.499 698.071L304.31 686.555C320.655 653.803 334.603 619.91 346.045 585.141C349.573 574.346 350.603 562.891 349.057 551.64C347.51 540.389 343.428 529.637 337.118 520.194C308.64 478.615 263.021 503.366 293.709 430.743H339.684Z" fill="black"/>
<path opacity="0.4" d="M367.247 476.227L359.079 468.104C359.079 468.751 374.903 566.438 379.344 593.889C381.965 585.87 383.972 577.663 385.347 569.339C390.57 536.107 379.656 502.161 367.247 476.227Z" fill="black"/>
<path d="M364.77 430.743C364.77 430.743 432.439 519.748 434.358 573.111C435.943 617.748 360.708 704.231 360.708 704.231L338.836 690.081C338.836 690.081 382.87 628.661 393.962 578.49C389.677 528.765 299.065 430.743 299.065 430.743H364.77Z" fill="#407BFF"/>
<path opacity="0.6" d="M364.77 430.743C364.77 430.743 432.439 519.748 434.358 573.111C435.943 617.748 360.708 704.231 360.708 704.231L338.836 690.081C338.836 690.081 382.87 628.661 393.962 578.49C389.677 528.765 299.065 430.743 299.065 430.743H364.77Z" fill="black"/>
<path d="M281.054 324.53C273.823 326.249 266.882 352.54 266.882 352.54L295.159 371.421C295.159 371.421 304.578 350.62 301.275 341.514C297.86 332.029 290.138 322.365 281.054 324.53Z" fill="#407BFF"/>
<path opacity="0.2" d="M286.589 341.47L284.625 364.391L295.137 371.443C298.039 364.909 300.188 358.065 301.542 351.044L286.589 341.47Z" fill="black"/>
<path d="M373.139 325.043C373.139 325.043 381.486 327.967 364.77 430.72H293.664C294.869 401.707 294.892 383.852 281.054 324.53C291.011 322.478 301.103 321.151 311.251 320.557C322.002 319.787 332.794 319.787 343.545 320.557C357.427 321.83 373.139 325.043 373.139 325.043Z" fill="#407BFF"/>
<path d="M380.37 341.47C381.977 345.933 383.673 350.732 385.459 355.352C387.244 359.972 388.941 364.725 390.748 369.412L396.216 383.428L397.6 386.932L398.314 388.673L398.649 389.543C398.649 389.699 398.649 389.699 398.649 389.677C398.241 389.102 397.707 388.629 397.087 388.293C396.204 387.774 395.208 387.475 394.185 387.423C393.335 387.396 392.49 387.556 391.708 387.892C390.681 388.36 390.681 388.561 390.704 388.539C390.889 388.39 391.054 388.218 391.195 388.026C392.43 386.404 393.499 384.661 394.386 382.825C395.435 380.772 396.44 378.585 397.444 376.375C399.408 371.912 401.216 367.292 403.023 362.627C404.831 357.963 406.55 353.254 408.224 348.5L413.312 334.261L421.905 336.493C420.208 346.67 418.021 356.579 415.388 366.667C414.116 371.689 412.62 376.666 410.924 381.687C410.076 384.209 409.139 386.709 408.067 389.275C406.951 392.061 405.576 394.736 403.961 397.265C403.367 398.117 402.711 398.922 401.997 399.676C400.857 400.907 399.474 401.887 397.935 402.555C396.569 403.141 395.09 403.416 393.605 403.358C391.942 403.296 390.321 402.812 388.896 401.952C387.215 400.903 385.819 399.454 384.834 397.734C384.499 397.154 384.209 396.573 384.008 396.149L383.584 395.301L382.736 393.561L381.04 390.101C378.808 385.459 376.576 380.772 374.635 376.063C372.693 371.354 370.64 366.578 368.72 361.779C366.801 356.981 365.082 352.182 363.453 347.005L380.37 341.47Z" fill="#E58A7B"/>
<path d="M373.139 325.043C381.687 327.074 391.306 352.339 391.306 352.339L365.886 373.965C365.886 373.965 349.437 346.424 352.763 337.341C356.222 327.878 361.98 322.387 373.139 325.043Z" fill="#407BFF"/>
<path d="M417.352 326.271L426.279 318.817L432.484 328.48L427.908 336.537C427.908 336.537 420.633 343.233 414.205 339.818C413.185 337.525 412.94 334.962 413.508 332.517C414.076 330.072 415.425 327.88 417.352 326.271Z" fill="#E58A7B"/>
<path d="M442.393 318.839L441.723 321.272L427.596 323.637L426.212 318.817L442.393 318.839Z" fill="#E58A7B"/>
<path d="M362.449 705.369L336.961 688.898L341.537 680.953L370.171 698.562L362.449 705.369Z" fill="#407BFF"/>
<path d="M319.151 718.492C316.915 718.219 314.766 717.457 312.858 716.261C312.779 716.233 312.711 716.182 312.662 716.114C312.614 716.046 312.588 715.965 312.588 715.881C312.588 715.798 312.614 715.716 312.662 715.648C312.711 715.58 312.779 715.529 312.858 715.502C313.549 715.279 319.553 713.426 321.294 714.855C321.49 715.017 321.638 715.229 321.725 715.468C321.811 715.708 321.832 715.966 321.785 716.216C321.754 716.618 321.621 717.005 321.398 717.341C321.175 717.677 320.871 717.95 320.513 718.135C320.095 718.363 319.627 718.486 319.151 718.492ZM314.13 716.037C316.92 717.466 319.151 717.979 320.223 717.443C320.456 717.314 320.652 717.127 320.793 716.901C320.933 716.674 321.014 716.415 321.026 716.149C321.026 715.792 321.026 715.636 320.825 715.546C319.888 714.788 316.54 715.368 314.085 716.037H314.13Z" fill="#263238"/>
<path d="M313.014 716.417C312.896 716.415 312.784 716.367 312.701 716.283C312.668 716.221 312.651 716.152 312.651 716.082C312.651 716.012 312.668 715.943 312.701 715.881C312.701 715.68 314.152 710.837 316.429 709.744C316.719 709.611 317.035 709.542 317.355 709.542C317.674 709.542 317.99 709.611 318.281 709.744C318.594 709.843 318.866 710.044 319.052 710.315C319.238 710.585 319.328 710.911 319.308 711.239C319.151 713.248 315.067 716.015 313.192 716.484L313.014 716.417ZM317.344 710.324C317.127 710.331 316.914 710.384 316.719 710.48C315.335 711.15 314.197 713.761 313.639 715.345C315.603 714.52 318.303 712.333 318.393 711.105C318.393 710.904 318.393 710.659 317.879 710.435C317.712 710.346 317.531 710.285 317.344 710.257V710.324Z" fill="#263238"/>
<path d="M350.999 728.134C348.478 728.134 344.974 724.898 343.054 722.911C343.005 722.843 342.979 722.761 342.979 722.677C342.979 722.593 343.005 722.511 343.054 722.443C343.098 722.371 343.161 722.312 343.236 722.273C343.31 722.234 343.394 722.215 343.478 722.22C344.371 722.22 352.115 723.38 353.209 725.567C353.325 725.763 353.386 725.987 353.386 726.215C353.386 726.442 353.325 726.666 353.209 726.862C353.045 727.202 352.797 727.496 352.489 727.714C352.18 727.933 351.822 728.07 351.446 728.112L350.999 728.134ZM344.527 723.224C347.339 725.947 349.817 727.464 351.223 727.286C351.469 727.254 351.703 727.162 351.906 727.018C352.108 726.874 352.272 726.682 352.383 726.46C352.433 726.384 352.46 726.295 352.46 726.203C352.46 726.112 352.433 726.023 352.383 725.947C351.803 724.742 347.674 723.715 344.527 723.224Z" fill="#263238"/>
<path d="M344.773 723.112C344.272 723.127 343.771 723.089 343.277 723.001C343.209 722.99 343.144 722.962 343.089 722.919C343.034 722.876 342.991 722.82 342.965 722.755C342.932 722.69 342.914 722.617 342.914 722.543C342.914 722.47 342.932 722.397 342.965 722.331C343.099 722.175 346.112 718.537 348.969 718.292C349.777 718.229 350.578 718.485 351.2 719.006C352.071 719.765 352.026 720.434 351.803 720.858C351.245 722.376 347.384 723.112 344.773 723.112ZM344.193 722.287C346.692 722.42 350.687 721.595 351.2 720.501C351.2 720.501 351.379 720.144 350.799 719.653C350.568 719.452 350.298 719.301 350.006 719.209C349.714 719.117 349.407 719.086 349.103 719.117C347.178 719.654 345.465 720.768 344.193 722.309V722.287Z" fill="#263238"/>
<path d="M313.617 714.006L294.691 708.65C294.364 708.551 294.013 708.576 293.704 708.72C293.395 708.865 293.151 709.118 293.017 709.431L286.634 723.782C286.484 724.149 286.413 724.544 286.427 724.941C286.441 725.338 286.539 725.727 286.714 726.083C286.889 726.44 287.137 726.755 287.442 727.008C287.748 727.262 288.104 727.448 288.486 727.554C295.182 729.294 298.395 729.785 306.72 732.173C311.853 733.602 319.174 736.258 326.249 738.266C333.324 740.275 335.689 733.379 332.944 731.906C320.535 725.344 319.553 720.747 316.161 715.836C315.553 714.947 314.653 714.3 313.617 714.006Z" fill="#407BFF"/>
<path d="M343.568 720.3L327.409 709.141C327.135 708.941 326.797 708.849 326.46 708.882C326.123 708.915 325.809 709.071 325.579 709.32L314.866 720.836C314.605 721.133 314.41 721.483 314.295 721.862C314.18 722.241 314.146 722.64 314.197 723.032C314.247 723.425 314.381 723.802 314.589 724.139C314.797 724.476 315.074 724.765 315.402 724.987C321.093 728.803 324.039 730.343 331.159 735.276C335.622 738.311 344.259 745.051 350.285 749.247C356.311 753.443 360.797 747.685 358.655 745.408C349.058 735.164 346.96 728.736 345.375 722.911C345.1 721.855 344.46 720.93 343.568 720.3Z" fill="#407BFF"/>
<path d="M330.467 699.544L301.342 685.06L304.355 677.159L335.466 692.425L330.467 699.544Z" fill="#407BFF"/>
<path d="M292.593 426.547L290.138 432.975C289.892 433.466 290.472 433.979 291.298 433.979H365.127C365.774 433.979 366.31 433.666 366.355 433.265L366.979 426.882C366.979 426.458 366.466 426.078 365.774 426.078H293.753C293.536 426.058 293.318 426.09 293.116 426.171C292.914 426.253 292.735 426.382 292.593 426.547Z" fill="#407BFF"/>
<path opacity="0.4" d="M292.593 426.547L290.138 432.975C289.892 433.466 290.472 433.979 291.298 433.979H365.127C365.774 433.979 366.31 433.666 366.355 433.265L366.979 426.882C366.979 426.458 366.466 426.078 365.774 426.078H293.753C293.536 426.058 293.318 426.09 293.116 426.171C292.914 426.253 292.735 426.382 292.593 426.547Z" fill="white"/>
<path d="M304.221 434.604H302.279C301.899 434.604 301.609 434.403 301.632 434.157L302.547 425.877C302.547 425.654 302.904 425.453 303.283 425.453H305.225C305.604 425.453 305.894 425.654 305.872 425.877L304.957 434.157C304.935 434.403 304.6 434.604 304.221 434.604Z" fill="#407BFF"/>
<path d="M349.75 434.604H347.83C347.451 434.604 347.161 434.403 347.183 434.157L348.076 425.877C348.076 425.654 348.455 425.453 348.835 425.453H350.754C351.133 425.453 351.446 425.654 351.401 425.877L350.509 434.157C350.397 434.403 350.151 434.604 349.75 434.604Z" fill="#407BFF"/>
<g style="mix-blend-mode:multiply">
<path d="M302.524 812.564C335.546 812.564 362.315 810.625 362.315 808.234C362.315 805.843 335.546 803.904 302.524 803.904C269.503 803.904 242.734 805.843 242.734 808.234C242.734 810.625 269.503 812.564 302.524 812.564Z" fill="#F5F5F5"/>
</g>
<path d="M338.948 802.119C328.369 799.039 316.629 795.089 309.532 790.96C309.331 790.826 309.108 790.759 308.907 790.647V742.752H330.31C331.935 742.656 333.462 741.943 334.578 740.759C335.694 739.574 336.316 738.008 336.316 736.38C336.316 734.753 335.694 733.187 334.578 732.002C333.462 730.818 331.935 730.105 330.31 730.009H309.019V511.691H296.163V730.009H274.894C274.026 729.957 273.156 730.084 272.338 730.381C271.52 730.678 270.772 731.139 270.139 731.736C269.506 732.332 269.001 733.052 268.656 733.851C268.312 734.65 268.134 735.51 268.134 736.38C268.134 737.25 268.312 738.111 268.656 738.91C269.001 739.709 269.506 740.429 270.139 741.025C270.772 741.622 271.52 742.083 272.338 742.38C273.156 742.677 274.026 742.804 274.894 742.752H296.163V790.58C295.963 790.58 295.762 790.759 295.561 790.893C288.352 795.089 276.702 799.039 266.123 802.052C265.408 802.268 264.795 802.733 264.393 803.362C263.992 803.992 263.829 804.744 263.934 805.483C264.039 806.222 264.406 806.899 264.967 807.392C265.528 807.884 266.247 808.159 266.993 808.167H338.077C338.791 808.119 339.466 807.827 339.99 807.34C340.514 806.854 340.856 806.203 340.957 805.495C341.059 804.787 340.915 804.066 340.55 803.452C340.184 802.837 339.618 802.367 338.948 802.119Z" fill="#E0E0E0"/>
<path d="M342.229 489.462H262.865C256.48 489.462 251.304 494.638 251.304 501.023V524.613C251.304 530.998 256.48 536.174 262.865 536.174H342.229C348.614 536.174 353.79 530.998 353.79 524.613V501.023C353.79 494.638 348.614 489.462 342.229 489.462Z" fill="#407BFF"/>
<path d="M262.128 536.197V540.259C262.128 543.606 265.766 546.329 270.23 546.329H334.953C339.416 546.329 343.054 543.606 343.054 540.259V536.197H262.128Z" fill="#407BFF"/>
<path opacity="0.3" d="M262.128 536.197V540.259C262.128 543.606 265.766 546.329 270.23 546.329H334.953C339.416 546.329 343.054 543.606 343.054 540.259V536.197H262.128Z" fill="white"/>
</svg>
