<svg width="16" height="16" viewBox="0 0 16 16" fill="none" xmlns="http://www.w3.org/2000/svg">
<path d="M16 8.02785C15.9975 9.98977 15.2801 11.883 13.983 13.3511C12.6859 14.8191 10.8985 15.7605 8.95768 15.998C8.91446 16.003 8.8707 15.9986 8.82927 15.9853C8.78785 15.972 8.74971 15.9501 8.71736 15.9209C8.68502 15.8917 8.6592 15.856 8.64162 15.8161C8.62404 15.7761 8.61509 15.7329 8.61537 15.6893V9.88031H10.4615C10.5459 9.8805 10.6294 9.86327 10.7068 9.82972C10.7843 9.79616 10.854 9.74698 10.9117 9.68524C10.9695 9.62349 11.0139 9.5505 11.0423 9.4708C11.0707 9.39109 11.0825 9.30638 11.0769 9.22192C11.0633 9.06313 10.9903 8.9154 10.8726 8.80843C10.7548 8.70146 10.6011 8.64319 10.4423 8.64534H8.61537V6.79288C8.61537 6.46535 8.74504 6.15123 8.97585 5.91963C9.20667 5.68802 9.51972 5.55791 9.84614 5.55791H11.0769C11.1613 5.5581 11.2448 5.54088 11.3222 5.50732C11.3997 5.47376 11.4694 5.42458 11.5271 5.36284C11.5848 5.30109 11.6293 5.2281 11.6577 5.1484C11.6861 5.0687 11.6979 4.98398 11.6923 4.89952C11.6787 4.74046 11.6055 4.59251 11.4874 4.4855C11.3693 4.37849 11.2152 4.3204 11.0561 4.32294H9.84614C9.1933 4.32294 8.5672 4.58316 8.10557 5.04637C7.64394 5.50957 7.3846 6.13781 7.3846 6.79288V8.64534H5.53844C5.45408 8.64515 5.37058 8.66237 5.29313 8.69593C5.21568 8.72949 5.14593 8.77867 5.08822 8.84041C5.03051 8.90215 4.98607 8.97514 4.95765 9.05485C4.92924 9.13455 4.91746 9.21927 4.92305 9.30373C4.93666 9.46279 5.00989 9.61074 5.12795 9.71775C5.24601 9.82475 5.40013 9.88285 5.55921 9.88031H7.3846V15.6908C7.38486 15.7344 7.37593 15.7775 7.3584 15.8174C7.34086 15.8573 7.31512 15.8929 7.28286 15.9221C7.2506 15.9513 7.21255 15.9732 7.17122 15.9866C7.12989 16 7.08621 16.0044 7.04306 15.9996C5.05025 15.7561 3.22117 14.7707 1.91787 13.2386C0.61457 11.7064 -0.0679705 9.73909 0.00534968 7.72606C0.159196 3.55803 3.52382 0.169577 7.68075 0.00748749C8.75698 -0.0343425 9.83055 0.142061 10.8373 0.526148C11.844 0.910235 12.7632 1.49411 13.5398 2.24286C14.3165 2.99161 14.9346 3.88984 15.3573 4.88383C15.7801 5.87782 15.9986 6.94715 16 8.02785Z" fill="#BDC3C7"/>
</svg>
