<svg width="35" height="35" viewBox="0 0 35 35" fill="none" xmlns="http://www.w3.org/2000/svg">
<g filter="url(#filter0_d_470_240)">
<path d="M23.5022 0.476807H11.5022C9.64629 0.478792 7.86697 1.21693 6.55464 2.52925C5.24232 3.84158 4.50418 5.6209 4.5022 7.47681V19.4768C4.50418 21.3327 5.24232 23.112 6.55464 24.4244C7.86697 25.7367 9.64629 26.4748 11.5022 26.4768H23.5022C25.3581 26.4748 27.1374 25.7367 28.4498 24.4244C29.7621 23.112 30.5002 21.3327 30.5022 19.4768V7.47681C30.5002 5.6209 29.7621 3.84158 28.4498 2.52925C27.1374 1.21693 25.3581 0.478792 23.5022 0.476807ZM17.5022 19.4768C16.3155 19.4768 15.1555 19.1249 14.1688 18.4656C13.1821 17.8063 12.413 16.8693 11.9589 15.7729C11.5048 14.6766 11.386 13.4702 11.6175 12.3063C11.849 11.1424 12.4204 10.0733 13.2596 9.23417C14.0987 8.39505 15.1678 7.82361 16.3317 7.5921C17.4955 7.36058 18.7019 7.4794 19.7983 7.93353C20.8947 8.38766 21.8317 9.15669 22.491 10.1434C23.1503 11.1301 23.5022 12.2901 23.5022 13.4768C23.5005 15.0676 22.8679 16.5928 21.743 17.7176C20.6182 18.8425 19.093 19.4752 17.5022 19.4768ZM25.0022 7.47681C24.7055 7.47681 24.4155 7.38883 24.1688 7.22401C23.9222 7.05919 23.7299 6.82492 23.6164 6.55083C23.5028 6.27674 23.4731 5.97514 23.531 5.68417C23.5889 5.3932 23.7318 5.12593 23.9415 4.91615C24.1513 4.70637 24.4186 4.56351 24.7096 4.50563C25.0005 4.44775 25.3021 4.47746 25.5762 4.59099C25.8503 4.70452 26.0846 4.89678 26.2494 5.14345C26.4142 5.39012 26.5022 5.68013 26.5022 5.97681C26.5022 6.37463 26.3442 6.75616 26.0629 7.03747C25.7816 7.31877 25.4 7.47681 25.0022 7.47681ZM21.5022 13.4768C21.5022 14.2679 21.2676 15.0413 20.8281 15.6991C20.3885 16.3569 19.7638 16.8696 19.0329 17.1723C18.302 17.4751 17.4978 17.5543 16.7218 17.3999C15.9459 17.2456 15.2332 16.8646 14.6738 16.3052C14.1144 15.7458 13.7334 15.0331 13.5791 14.2572C13.4247 13.4812 13.5039 12.677 13.8067 11.9461C14.1094 11.2152 14.6221 10.5905 15.2799 10.1509C15.9377 9.7114 16.7111 9.47681 17.5022 9.47681C18.5631 9.47681 19.5805 9.89823 20.3306 10.6484C21.0808 11.3985 21.5022 12.4159 21.5022 13.4768Z" fill="white"/>
<path d="M17.5022 19.9768H17.5027C19.2259 19.975 20.8781 19.2897 22.0966 18.0712C23.3151 16.8527 24.0004 15.2005 24.0022 13.4773V13.4768C24.0022 12.1912 23.621 10.9345 22.9067 9.8656C22.1925 8.79668 21.1774 7.96356 19.9896 7.47159C18.8019 6.97962 17.495 6.8509 16.2341 7.1017C14.9732 7.35251 13.815 7.97157 12.906 8.88061C11.997 9.78965 11.3779 10.9478 11.1271 12.2087C10.8763 13.4696 11.005 14.7765 11.497 15.9642C11.989 17.152 12.8221 18.1671 13.891 18.8814C14.9599 19.5956 16.2166 19.9768 17.5022 19.9768ZM11.5025 0.976807H23.5019C25.2253 0.978722 26.8776 1.66418 28.0962 2.88281C29.3149 4.10149 30.0004 5.75386 30.0022 7.47734V19.4763C30.0004 21.1998 29.3149 22.8521 28.0962 24.0708C26.8775 25.2895 25.2251 25.975 23.5017 25.9768H11.5027C9.77925 25.975 8.12688 25.2895 6.9082 24.0708C5.68957 22.8522 5.00411 21.1999 5.0022 19.4765V7.47707C5.00411 5.75368 5.68957 4.10143 6.9082 2.88281C8.12682 1.66418 9.77907 0.978722 11.5025 0.976807ZM23.8911 7.63975C24.22 7.85951 24.6066 7.97681 25.0022 7.97681C25.5326 7.97681 26.0413 7.76609 26.4164 7.39102C26.7915 7.01595 27.0022 6.50724 27.0022 5.97681C27.0022 5.58124 26.8849 5.19456 26.6651 4.86567C26.4454 4.53677 26.133 4.28042 25.7676 4.12905C25.4021 3.97767 25 3.93807 24.612 4.01524C24.2241 4.09241 23.8677 4.28289 23.588 4.56259C23.3083 4.8423 23.1178 5.19866 23.0406 5.58663C22.9635 5.97459 23.0031 6.37672 23.1544 6.74217C23.3058 7.10763 23.5622 7.41998 23.8911 7.63975ZM21.0022 13.4768C21.0022 14.169 20.7969 14.8457 20.4123 15.4213C20.0278 15.9969 19.4811 16.4455 18.8416 16.7104C18.202 16.9753 17.4983 17.0446 16.8194 16.9096C16.1404 16.7745 15.5168 16.4412 15.0273 15.9517C14.5378 15.4622 14.2045 14.8386 14.0694 14.1596C13.9344 13.4807 14.0037 12.777 14.2686 12.1374C14.5335 11.4979 14.9821 10.9512 15.5577 10.5667C16.1333 10.1821 16.81 9.97681 17.5022 9.97681C18.4305 9.97681 19.3207 10.3456 19.9771 11.0019C20.6334 11.6583 21.0022 12.5485 21.0022 13.4768Z" stroke="black"/>
</g>
<defs>
<filter id="filter0_d_470_240" x="0.502197" y="0.476807" width="34" height="34" filterUnits="userSpaceOnUse" color-interpolation-filters="sRGB">
<feFlood flood-opacity="0" result="BackgroundImageFix"/>
<feColorMatrix in="SourceAlpha" type="matrix" values="0 0 0 0 0 0 0 0 0 0 0 0 0 0 0 0 0 0 127 0" result="hardAlpha"/>
<feOffset dy="4"/>
<feGaussianBlur stdDeviation="2"/>
<feComposite in2="hardAlpha" operator="out"/>
<feColorMatrix type="matrix" values="0 0 0 0 0 0 0 0 0 0 0 0 0 0 0 0 0 0 0.25 0"/>
<feBlend mode="normal" in2="BackgroundImageFix" result="effect1_dropShadow_470_240"/>
<feBlend mode="normal" in="SourceGraphic" in2="effect1_dropShadow_470_240" result="shape"/>
</filter>
</defs>
</svg>
