<svg width="16" height="16" viewBox="0 0 16 16" fill="none" xmlns="http://www.w3.org/2000/svg">
<path d="M14.7692 0H1.23077C0.904349 0 0.591298 0.12967 0.360484 0.360484C0.12967 0.591298 0 0.904349 0 1.23077V14.7692C0 15.0957 0.12967 15.4087 0.360484 15.6395C0.591298 15.8703 0.904349 16 1.23077 16H14.7692C15.0957 16 15.4087 15.8703 15.6395 15.6395C15.8703 15.4087 16 15.0957 16 14.7692V1.23077C16 0.904349 15.8703 0.591298 15.6395 0.360484C15.4087 0.12967 15.0957 0 14.7692 0ZM5.53846 11.6923C5.53846 11.8555 5.47363 12.012 5.35822 12.1275C5.24281 12.2429 5.08629 12.3077 4.92308 12.3077C4.75987 12.3077 4.60334 12.2429 4.48793 12.1275C4.37253 12.012 4.30769 11.8555 4.30769 11.6923V6.76923C4.30769 6.60602 4.37253 6.4495 4.48793 6.33409C4.60334 6.21868 4.75987 6.15385 4.92308 6.15385C5.08629 6.15385 5.24281 6.21868 5.35822 6.33409C5.47363 6.4495 5.53846 6.60602 5.53846 6.76923V11.6923ZM4.92308 5.53846C4.74051 5.53846 4.56204 5.48432 4.41024 5.3829C4.25844 5.28147 4.14013 5.1373 4.07027 4.96863C4.0004 4.79996 3.98212 4.61436 4.01774 4.4353C4.05335 4.25624 4.14127 4.09177 4.27036 3.96267C4.39946 3.83358 4.56393 3.74566 4.74299 3.71004C4.92205 3.67443 5.10765 3.69271 5.27632 3.76257C5.44499 3.83244 5.58916 3.95075 5.69059 4.10255C5.79202 4.25435 5.84615 4.43282 5.84615 4.61538C5.84615 4.8602 5.7489 5.09499 5.57579 5.2681C5.40268 5.44121 5.16789 5.53846 4.92308 5.53846ZM12.3077 11.6923C12.3077 11.8555 12.2429 12.012 12.1275 12.1275C12.012 12.2429 11.8555 12.3077 11.6923 12.3077C11.5291 12.3077 11.3726 12.2429 11.2572 12.1275C11.1418 12.012 11.0769 11.8555 11.0769 11.6923V8.92308C11.0769 8.51505 10.9148 8.12374 10.6263 7.83522C10.3378 7.5467 9.94649 7.38462 9.53846 7.38462C9.13044 7.38462 8.73912 7.5467 8.45061 7.83522C8.16209 8.12374 8 8.51505 8 8.92308V11.6923C8 11.8555 7.93517 12.012 7.81976 12.1275C7.70435 12.2429 7.54783 12.3077 7.38462 12.3077C7.22141 12.3077 7.06488 12.2429 6.94947 12.1275C6.83407 12.012 6.76923 11.8555 6.76923 11.6923V6.76923C6.76999 6.6185 6.82606 6.47328 6.92678 6.36114C7.0275 6.249 7.16588 6.17772 7.31567 6.16084C7.46546 6.14395 7.61624 6.18263 7.7394 6.26953C7.86256 6.35644 7.94954 6.48553 7.98385 6.63231C8.40014 6.3499 8.8855 6.18623 9.3878 6.15886C9.89011 6.13149 10.3904 6.24147 10.8349 6.47697C11.2794 6.71247 11.6514 7.06461 11.9109 7.49557C12.1703 7.92653 12.3075 8.42003 12.3077 8.92308V11.6923Z" fill="#BDC3C7"/>
</svg>
