<svg width="7" height="7" viewBox="0 0 7 7" fill="none" xmlns="http://www.w3.org/2000/svg">
<path d="M4.88681 0.476807H2.11758C1.6893 0.477265 1.27868 0.647604 0.975839 0.950448C0.672994 1.25329 0.502655 1.66391 0.502197 2.09219V4.86142C0.502655 5.28971 0.672994 5.70032 0.975839 6.00317C1.27868 6.30601 1.6893 6.47635 2.11758 6.47681H4.88681C5.3151 6.47635 5.72571 6.30601 6.02856 6.00317C6.3314 5.70032 6.50174 5.28971 6.5022 4.86142V2.09219C6.50174 1.66391 6.3314 1.25329 6.02856 0.950448C5.72571 0.647604 5.3151 0.477265 4.88681 0.476807ZM3.5022 4.86142C3.22835 4.86142 2.96064 4.78022 2.73295 4.62807C2.50525 4.47593 2.32778 4.25968 2.22298 4.00668C2.11818 3.75367 2.09076 3.47527 2.14419 3.20668C2.19761 2.93809 2.32948 2.69138 2.52313 2.49774C2.71677 2.30409 2.96348 2.17222 3.23207 2.1188C3.50066 2.06537 3.77906 2.09279 4.03207 2.19759C4.28507 2.30239 4.50132 2.47986 4.65346 2.70756C4.80561 2.93525 4.88681 3.20296 4.88681 3.47681C4.88643 3.84391 4.74043 4.19587 4.48085 4.45546C4.22126 4.71504 3.8693 4.86104 3.5022 4.86142ZM5.23297 2.09219C5.1645 2.09219 5.09758 2.07189 5.04065 2.03385C4.98373 1.99582 4.93936 1.94176 4.91316 1.8785C4.88696 1.81525 4.88011 1.74565 4.89346 1.67851C4.90682 1.61136 4.93979 1.54968 4.9882 1.50127C5.03661 1.45286 5.09829 1.41989 5.16544 1.40653C5.23258 1.39318 5.30218 1.40003 5.36543 1.42623C5.42868 1.45243 5.48275 1.4968 5.52078 1.55372C5.55882 1.61065 5.57912 1.67757 5.57912 1.74604C5.57912 1.83784 5.54265 1.92589 5.47773 1.99081C5.41282 2.05572 5.32477 2.09219 5.23297 2.09219ZM4.42527 3.47681C4.42527 3.65937 4.37114 3.83784 4.26971 3.98964C4.16828 4.14144 4.02411 4.25975 3.85544 4.32962C3.68677 4.39948 3.50117 4.41776 3.32211 4.38215C3.14305 4.34653 2.97858 4.25862 2.84948 4.12952C2.72039 4.00043 2.63247 3.83595 2.59686 3.65689C2.56124 3.47783 2.57952 3.29223 2.64939 3.12356C2.71925 2.95489 2.83756 2.81073 2.98936 2.7093C3.14116 2.60787 3.31963 2.55373 3.5022 2.55373C3.74701 2.55373 3.9818 2.65098 4.15491 2.82409C4.32802 2.9972 4.42527 3.23199 4.42527 3.47681Z" fill="#BDC3C7"/>
</svg>
