<svg width="17" height="17" viewBox="0 0 17 17" fill="none" xmlns="http://www.w3.org/2000/svg">
<path d="M12.1945 0.476807H4.80989C3.66779 0.478028 2.57282 0.932266 1.76524 1.73985C0.957656 2.54743 0.503419 3.6424 0.502197 4.7845V12.1691C0.503419 13.3112 0.957656 14.4062 1.76524 15.2138C2.57282 16.0213 3.66779 16.4756 4.80989 16.4768H12.1945C13.3366 16.4756 14.4316 16.0213 15.2392 15.2138C16.0467 14.4062 16.501 13.3112 16.5022 12.1691V4.7845C16.501 3.6424 16.0467 2.54743 15.2392 1.73985C14.4316 0.932266 13.3366 0.478028 12.1945 0.476807ZM8.5022 12.1691C7.77193 12.1691 7.05806 11.9526 6.45086 11.5468C5.84366 11.1411 5.37041 10.5645 5.09095 9.88979C4.81149 9.21511 4.73837 8.47271 4.88084 7.75647C5.02331 7.04024 5.37496 6.38233 5.89134 5.86595C6.40772 5.34957 7.06563 4.99791 7.78186 4.85545C8.4981 4.71298 9.2405 4.7861 9.91518 5.06556C10.5899 5.34502 11.1665 5.81827 11.5722 6.42547C11.978 7.03267 12.1945 7.74654 12.1945 8.47681C12.1935 9.45576 11.8042 10.3943 11.1119 11.0865C10.4197 11.7788 9.48115 12.1681 8.5022 12.1691ZM13.1176 4.7845C12.935 4.7845 12.7565 4.73036 12.6047 4.62893C12.4529 4.5275 12.3346 4.38334 12.2648 4.21467C12.1949 4.046 12.1766 3.8604 12.2122 3.68134C12.2479 3.50228 12.3358 3.3378 12.4649 3.20871C12.594 3.07961 12.7584 2.9917 12.9375 2.95608C13.1166 2.92046 13.3022 2.93874 13.4708 3.00861C13.6395 3.07848 13.7837 3.19679 13.8851 3.34859C13.9865 3.50039 14.0407 3.67885 14.0407 3.86142C14.0407 4.10624 13.9434 4.34103 13.7703 4.51414C13.5972 4.68725 13.3624 4.7845 13.1176 4.7845ZM10.9637 8.47681C10.9637 8.96365 10.8194 9.43957 10.5489 9.84436C10.2784 10.2492 9.89397 10.5647 9.44419 10.751C8.9944 10.9373 8.49947 10.986 8.02198 10.891C7.54448 10.7961 7.10588 10.5616 6.76163 10.2174C6.41737 9.87312 6.18294 9.43452 6.08796 8.95703C5.99298 8.47954 6.04172 7.9846 6.22803 7.53482C6.41434 7.08503 6.72984 6.70059 7.13464 6.43011C7.53944 6.15964 8.01535 6.01527 8.5022 6.01527C9.15504 6.01527 9.78114 6.27461 10.2428 6.73624C10.7044 7.19786 10.9637 7.82397 10.9637 8.47681Z" fill="#BDC3C7"/>
</svg>
